<svg width="1034" height="800" viewBox="0 0 1034 800" fill="none" xmlns="http://www.w3.org/2000/svg">
<path d="M386.152 0C447.997 17.1367 507.672 33.1887 567.13 50.1084C614.653 63.7744 661.308 79.6096 704.707 103.905C768.505 139.913 801.272 194.794 807.348 266.811C810.82 308.026 811.905 349.024 798.451 388.937C780.874 441.215 742.682 469.848 690.603 465.944C669.554 464.425 648.939 455.965 628.324 449.675C625.503 448.807 622.682 441.866 622.682 437.961C622.248 361.388 622.465 284.599 622.248 208.026C622.248 197.18 621.814 186.334 620.295 175.705C617.691 156.833 610.53 140.998 590.349 134.707C577.329 130.586 566.913 133.839 561.705 146.638C557.799 156.833 555.412 168.113 555.412 178.959C554.978 381.345 555.195 583.731 555.195 786.117C555.195 790.456 555.195 794.794 555.195 800C551.723 799.349 548.685 798.915 545.864 798.048C495.737 782.213 445.61 766.161 395.483 750.542C388.539 748.373 385.935 745.553 385.935 737.744C386.152 495.662 386.152 253.362 386.152 11.2798C386.152 9.11062 386.152 6.72451 386.152 0Z" fill="black"/>
<path d="M587.309 629.718C587.309 596.313 587.092 565.076 587.743 533.623C587.743 530.803 592.517 526.681 595.555 525.814C633.096 516.92 670.203 506.074 708.178 500.434C788.033 488.72 866.804 496.096 943.405 521.692C967.058 529.718 989.626 541.215 1011.98 552.929C1022.83 558.569 1030.64 568.764 1033.03 581.779C1036.28 598.916 1030.2 613.449 1016.32 622.56C996.136 635.575 975.738 649.458 953.387 657.701C835.556 701.302 716.858 743.384 598.593 785.901C595.555 786.985 592.517 787.636 587.96 789.154C587.743 785.033 587.092 781.562 587.092 778.308C587.092 752.929 587.309 727.766 586.875 702.386C586.658 694.36 589.479 691.107 596.857 688.721C682.572 658.135 768.069 627.766 853.567 597.18C861.379 594.36 868.974 590.89 875.701 586.334C887.636 578.308 886.768 568.547 873.314 563.124C853.133 554.881 831.65 554.881 810.384 557.05C769.588 560.955 732.916 579.393 694.724 591.974C659.57 603.688 624.416 616.703 587.309 629.718Z" fill="black"/>
<path d="M353.6 612.582C353.6 640.781 353.817 667.679 353.383 694.36C353.383 696.746 349.911 700.434 347.524 700.868C259.205 716.92 172.188 711.497 86.6904 684.816C63.4715 677.658 40.4695 670.716 21.1566 655.098C10.5236 646.421 2.06064 636.009 0.324645 622.126C-1.84535 604.122 7.05159 590.456 21.3736 582.43C46.7625 568.33 72.5855 553.796 99.7104 543.818C181.302 513.449 263.762 485.033 345.788 455.749C347.741 455.098 349.694 454.447 352.949 453.363C353.383 457.05 353.817 460.087 353.817 463.124C353.817 488.07 353.166 513.015 354.251 537.961C354.685 548.59 350.779 552.712 341.231 555.966C288.5 574.404 235.986 593.276 183.472 612.365C177.83 614.534 171.537 616.052 166.763 619.74C161.772 623.645 154.828 629.718 155.262 634.707C155.479 639.263 163.508 645.987 169.15 646.855C185.642 649.892 202.568 652.495 219.277 652.278C257.686 652.061 291.538 634.057 326.909 622.343C335.155 619.523 343.618 616.269 353.6 612.582Z" fill="black"/>
</svg>
