<svg width="375" height="146" viewBox="0 0 375 146" fill="none" xmlns="http://www.w3.org/2000/svg">
<path d="M39.1297 40.9791C53.0724 40.9791 61.618 51.5736 61.618 69.4143C61.618 87.2051 53.1724 97.8496 39.3795 97.8496C31.4836 97.8496 25.4368 94.4014 22.7382 88.5544H21.8387V114.241H7.29621V41.8786H21.3889V50.9239H22.2884C25.2869 44.7272 31.5336 40.9791 39.1297 40.9791ZM34.1822 85.7059C42.0282 85.7059 46.6757 79.609 46.6757 69.4143C46.6757 59.3196 41.9782 53.1728 34.2322 53.1728C26.4862 53.1728 21.6887 59.3696 21.6887 69.4643C21.6887 79.5591 26.4862 85.7059 34.1822 85.7059ZM78.0095 117.14C77.4598 117.14 73.062 117.09 72.4623 116.99V105.246C72.9621 105.346 75.1609 105.396 75.7606 105.396C81.2078 105.396 84.3062 103.547 85.5056 99.3488L86.0053 97.3498L66.6654 41.8786H82.707L94.301 83.6569H95.2005L106.795 41.8786H122.187L103.196 97.8496C98.4988 112.042 91.7523 117.14 78.0095 117.14Z" fill="#FFD242"/>
<path fill-rule="evenodd" clip-rule="evenodd" d="M190.533 113L141.745 57.4956V40.8875H156.838V73.0208H157.737L184.373 40.8875H201.165L174.878 72.521L203.014 113H190.533ZM220.505 79.6673C221.004 72.521 225.752 67.8235 232.498 67.8235C239.295 67.8235 243.693 72.3711 243.992 79.6673H220.505ZM257.835 97.3081H244.292C242.743 100.956 238.795 103.005 233.048 103.005C225.452 103.005 220.654 97.9078 220.455 89.7121V88.9625H258.285V84.5148C258.285 67.0239 248.69 56.6792 232.448 56.6792C216.057 56.6792 205.962 67.7735 205.962 85.7142C205.962 103.605 215.857 114.199 232.648 114.199C246.141 114.199 255.636 107.703 257.835 97.3081ZM270.029 132.99C270.629 133.09 275.026 133.14 275.576 133.14C289.319 133.14 296.065 128.042 300.763 113.85L319.753 57.8786H304.361L292.767 99.6569H291.867L280.273 57.8786H264.232L283.572 113.35L283.072 115.349C281.873 119.547 278.774 121.396 273.327 121.396C272.727 121.396 270.529 121.346 270.029 121.246V132.99ZM350.087 56.6792C336.344 56.6792 327.149 63.6256 327.149 74.0702C327.149 82.5658 332.346 87.6631 343.041 90.0119L353.036 92.2608C357.883 93.3102 359.982 94.9594 359.982 97.6579C359.982 101.206 356.084 103.555 350.437 103.555C344.64 103.555 341.092 101.406 339.992 97.6579H325.8C326.799 108.252 335.595 114.199 350.137 114.199C364.58 114.199 374.425 107.003 374.425 96.0088C374.425 87.7631 369.627 83.2654 358.933 80.9167L348.588 78.6678C343.491 77.5184 341.142 75.8693 341.142 73.1707C341.142 69.6725 344.99 67.3237 350.187 67.3237C355.584 67.3237 358.933 69.5226 359.682 73.0707H373.125C372.326 62.5262 364.08 56.6792 350.087 56.6792Z" fill="#3770A0"/>
<path d="M129.289 57.0616L176.272 110.513L106.49 124.476L129.289 57.0616Z" fill="#68A8D9"/>
<path d="M132.787 74.5433L159.383 104.801L119.881 112.706L132.787 74.5433Z" fill="white"/>
</svg>
