<svg width="800" height="800" viewBox="0 0 800 800" fill="none" xmlns="http://www.w3.org/2000/svg">
<path fill-rule="evenodd" clip-rule="evenodd" d="M399.137 800C218.25 800 65.3873 679.825 15.9623 515.025H15.9373C16.4859 513.075 17.012 511.159 17.5158 509.275L165.292 570.252C172.676 603.828 195.815 633.268 229.809 647.422C256.553 658.534 286.614 658.577 313.39 647.542C340.166 636.507 361.467 615.295 372.615 588.566C378.562 574.329 381.431 558.994 381.033 543.569L518.793 445.046L522.178 445.108C604.701 445.108 671.778 377.834 671.778 295.2C671.778 212.566 604.824 145.538 522.178 145.366C439.692 145.366 372.578 212.566 372.578 295.2H372.701L372.738 297.145L276.369 437.145C260.763 436.431 245.107 439.175 230.24 445.292C223.767 447.923 217.588 451.223 211.803 455.138L0.392578 368.005C16.7142 162.062 189.002 0 399.137 0C620.05 0 799.137 179.087 799.137 400C799.137 620.912 620.05 800 399.137 800ZM239.372 624.357C282.289 642.24 331.667 621.969 349.563 578.892H349.464C358.104 558.142 358.153 535.163 349.587 514.326C341.021 493.489 325.021 477.194 304.098 468.542C283.446 459.963 261.366 460.209 241.944 467.594L292.406 488.455C307.604 494.806 319.66 506.929 325.925 522.162C332.191 537.395 332.153 554.493 325.821 569.698C322.694 577.224 318.115 584.059 312.345 589.814C306.575 595.569 299.728 600.131 292.195 603.239C284.662 606.346 276.59 607.939 268.44 607.926C260.291 607.913 252.225 606.295 244.701 603.163L196 582.978C204.89 601.626 220.327 616.353 239.372 624.357ZM451.852 365.741C470.533 384.456 495.87 395.005 522.313 395.077C548.761 395.012 574.105 384.466 592.791 365.749C611.477 347.033 621.983 321.672 622.006 295.225C621.977 268.781 611.468 243.427 592.782 224.716C574.097 206.005 548.757 195.462 522.313 195.397C495.874 195.469 470.541 206.014 451.86 224.725C433.18 243.435 422.675 268.785 422.646 295.225C422.668 321.668 433.17 347.025 451.852 365.741ZM469.518 242.068C455.487 256.134 447.614 275.196 447.63 295.065C447.62 314.931 455.486 333.988 469.519 348.05C483.553 362.111 502.595 370.026 522.461 370.055C542.334 370.036 561.385 362.125 575.427 348.063C589.468 334 597.351 314.937 597.341 295.065C597.341 253.649 563.753 220.049 522.461 220.049C502.593 220.082 483.55 228.002 469.518 242.068Z" fill="url(#paint0_linear_3_78)"/>
<defs>
<linearGradient id="paint0_linear_3_78" x1="39342.2" y1="0" x2="39342.2" y2="78769.2" gradientUnits="userSpaceOnUse">
<stop stop-color="#111D2E"/>
<stop offset="0.212" stop-color="#051839"/>
<stop offset="0.407" stop-color="#0A1B48"/>
<stop offset="0.581" stop-color="#132E62"/>
<stop offset="0.738" stop-color="#144B7E"/>
<stop offset="0.873" stop-color="#136497"/>
<stop offset="1" stop-color="#1387B8"/>
</linearGradient>
</defs>
</svg>
