<?xml version="1.0" encoding="UTF-8" standalone="no"?>
<!-- Created with Inkscape (http://www.inkscape.org/) -->

<svg
   xmlns:dc="http://purl.org/dc/elements/1.1/"
   xmlns:cc="http://creativecommons.org/ns#"
   xmlns:rdf="http://www.w3.org/1999/02/22-rdf-syntax-ns#"
   xmlns:svg="http://www.w3.org/2000/svg"
   xmlns="http://www.w3.org/2000/svg"
   xmlns:sodipodi="http://sodipodi.sourceforge.net/DTD/sodipodi-0.dtd"
   xmlns:inkscape="http://www.inkscape.org/namespaces/inkscape"
   width="700"
   height="700"
   viewBox="0 0 185.20834 185.20834"
   version="1.1"
   id="svg4591"
   inkscape:export-filename="C:\Users\suitedoalex\sites\xbox-logo-0.png"
   inkscape:export-xdpi="561.73712"
   inkscape:export-ydpi="561.73712"
   inkscape:version="0.92.0 r15299"
   sodipodi:docname="xbox-logo.svg">
  <defs
     id="defs4585" />
  <sodipodi:namedview
     id="base"
     pagecolor="#ffffff"
     bordercolor="#666666"
     borderopacity="1.0"
     inkscape:pageopacity="0.0"
     inkscape:pageshadow="2"
     inkscape:zoom="1.4"
     inkscape:cx="331.77998"
     inkscape:cy="322.05831"
     inkscape:document-units="mm"
     inkscape:current-layer="layer1"
     showgrid="false"
     units="px"
     inkscape:window-width="1920"
     inkscape:window-height="1017"
     inkscape:window-x="-8"
     inkscape:window-y="-8"
     inkscape:window-maximized="1" />
  <metadata
     id="metadata4588">
    <rdf:RDF>
      <cc:Work
         rdf:about="">
        <dc:format>image/svg+xml</dc:format>
        <dc:type
           rdf:resource="http://purl.org/dc/dcmitype/StillImage" />
        <dc:title></dc:title>
      </cc:Work>
    </rdf:RDF>
  </metadata>
  <g
     inkscape:label="Camada 1"
     inkscape:groupmode="layer"
     id="layer1"
     transform="translate(0,-111.79161)">
    <g
       id="g18"
       transform="matrix(1.2627818,0,0,-1.2627818,94.25336,218.06347)"
       style="fill:#107b10;fill-opacity:1"
       inkscape:export-xdpi="67.22364"
       inkscape:export-ydpi="67.22364">
      <path
         d="M 0,0 H -3.595 L -9.784,8.518 -15.973,0 h -3.595 l 7.986,10.992 -7.359,10.13 h 3.595 l 5.562,-7.655 5.562,7.655 h 3.595 L -7.986,10.992 Z M 18.663,6.006 C 18.663,4.152 18.048,2.671 16.834,1.605 15.621,0.54 13.857,0 11.593,0 H 1.689 V 9.406 H -3.017 L -1.06,12.1 h 2.749 v 9.022 h 9.489 c 2.128,0 3.782,-0.51 4.916,-1.516 1.136,-1.007 1.711,-2.349 1.711,-3.987 0,-2.032 -0.921,-3.572 -2.737,-4.58 1.172,-0.453 2.071,-1.12 2.673,-1.984 0.612,-0.878 0.922,-1.904 0.922,-3.049 M 4.915,12.1 h 6.056 c 1.219,0 2.145,0.274 2.753,0.813 0.606,0.539 0.914,1.36 0.914,2.44 0,0.932 -0.32,1.671 -0.95,2.194 -0.633,0.526 -1.546,0.792 -2.717,0.792 H 4.915 Z M 15.407,6.065 c 0,1.109 -0.335,1.952 -0.995,2.505 -0.661,0.555 -1.67,0.836 -2.997,0.836 h -6.5 V 2.783 h 6.5 c 1.288,0 2.287,0.286 2.968,0.851 0.679,0.563 1.024,1.381 1.024,2.431 M 40.36,10.561 C 40.36,8.928 40.123,7.43 39.656,6.106 39.189,4.783 38.477,3.597 37.542,2.583 36.597,1.569 35.489,0.798 34.248,0.291 c -1.24,-0.507 -2.647,-0.764 -4.182,-0.764 -1.555,0 -2.972,0.257 -4.212,0.764 -1.241,0.507 -2.339,1.278 -3.265,2.292 -0.945,1.004 -1.664,2.185 -2.136,3.509 -0.472,1.323 -0.712,2.827 -0.712,4.469 0,1.633 0.24,3.134 0.712,4.462 0.472,1.329 1.191,2.522 2.136,3.545 0.926,1.005 2.024,1.769 3.265,2.271 1.24,0.502 2.657,0.756 4.212,0.756 1.534,0 2.942,-0.254 4.182,-0.756 1.24,-0.502 2.349,-1.266 3.294,-2.271 0.935,-1.024 1.647,-2.216 2.114,-3.545 0.467,-1.328 0.704,-2.829 0.704,-4.462 m -17.274,0 c 0,-2.485 0.645,-4.478 1.915,-5.925 1.251,-1.465 2.954,-2.208 5.065,-2.208 2.11,0 3.814,0.743 5.064,2.208 1.251,1.427 1.885,3.42 1.885,5.925 0,2.505 -0.634,4.508 -1.885,5.955 -1.27,1.445 -2.974,2.178 -5.064,2.178 -2.091,0 -3.795,-0.733 -5.065,-2.178 -1.27,-1.486 -1.915,-3.49 -1.915,-5.955 m 27.464,0.431 7.36,10.13 h -3.595 l -5.562,-7.655 -5.562,7.655 H 39.595 L 46.955,10.992 38.969,0 h 3.595 L 48.753,8.518 54.941,0 h 3.596"
         style="fill:#107b10;fill-opacity:1;fill-rule:nonzero;stroke:none"
         id="path20"
         inkscape:connector-curvature="0" />
    </g>
    <g
       id="g22"
       transform="matrix(1.2627818,0,0,-1.2627818,39.223855,200.00319)"
       style="fill:#107b10;fill-opacity:1"
       inkscape:export-xdpi="67.22364"
       inkscape:export-ydpi="67.22364">
      <path
         d="M 0,0 C 0.02,0 0.044,-0.017 0.057,-0.029 5.312,-4.026 14.31,-13.913 11.567,-16.706 8.476,-19.411 4.43,-21.05 0,-21.05 c -4.43,0 -8.476,1.639 -11.567,4.344 -2.743,2.793 6.254,12.68 11.509,16.677 C -0.044,-0.017 -0.02,0 0,0 M 9.154,11.522 C 6.462,13.121 3.546,14.093 0,14.093 c -3.546,0 -6.462,-0.972 -9.154,-2.571 -0.031,-0.019 -0.044,-0.055 -0.029,-0.088 0.015,-0.032 0.05,-0.038 0.085,-0.03 3.403,0.735 8.571,-2.203 9.061,-2.498 C -0.026,8.9 -0.015,8.892 0,8.892 c 0.015,0 0.026,0.008 0.037,0.014 0.49,0.295 5.658,3.233 9.061,2.498 0.035,-0.008 0.07,-0.002 0.085,0.03 0.015,0.033 0.002,0.069 -0.029,0.088 M -12.3,9.051 c -0.029,-0.015 -0.054,-0.037 -0.078,-0.06 -3.206,-3.183 -5.193,-7.594 -5.193,-12.47 0,-4.003 1.339,-7.691 3.593,-10.645 0.021,-0.028 0.062,-0.047 0.093,-0.028 0.03,0.017 0.032,0.056 0.02,0.09 -1.339,4.141 5.51,14.181 9.047,18.391 0.012,0.014 0.024,0.031 0.024,0.051 0,0.025 -0.014,0.043 -0.031,0.058 -5.36,5.331 -7.179,4.765 -7.475,4.613 M 4.825,4.438 C 4.808,4.423 4.794,4.405 4.794,4.38 c 0,-0.02 0.012,-0.037 0.024,-0.051 3.537,-4.21 10.386,-14.25 9.046,-18.391 -0.011,-0.034 -0.009,-0.073 0.021,-0.09 0.031,-0.019 0.072,0 0.093,0.028 2.254,2.954 3.593,6.642 3.593,10.645 0,4.876 -1.987,9.287 -5.193,12.47 C 12.354,9.014 12.329,9.036 12.3,9.051 12.004,9.203 10.185,9.769 4.825,4.438"
         style="fill:#107b10;fill-opacity:1;fill-rule:nonzero;stroke:none"
         id="path24"
         inkscape:connector-curvature="0" />
    </g>
  </g>
</svg>
